<?xml version="1.0" ?><svg id="Layer_1" style="enable-background:new 0 0 91 91;" version="1.1" viewBox="0 0 91 91" xml:space="preserve" xmlns="http://www.w3.org/2000/svg" xmlns:xlink="http://www.w3.org/1999/xlink"><style type="text/css">
	.st0{fill:#3B6A75;}
</style><g><path class="st0" d="M63.6,20.8c-10.3,2.6-20.6,3.5-31.1,2.9c-3-0.2-4,3.5-2.3,5.5c2.3,2.7,4.7,5.3,7.1,7.9   c-3.4,3.1-6.8,6.1-10.1,9.2c-3.3,3-7.7,5.9-9.5,10.2c-0.4,1,0.8,1.9,1.7,1.7c4.4-1.1,8.1-5.4,11.5-8.2c4.2-3.5,8.5-7.1,12.7-10.6   c1.3-1.1,0.9-3.1,0-4.2c-1.3-1.6-2.7-3.2-4-4.9c7.2,0,14.3-0.7,21.3-2.1C60.4,35.6,60,42.8,60.2,50c-1.4-1.1-2.8-2.2-4.2-3.3   c-1.2-0.9-3.3-1.5-4.4,0C46.3,53.5,41,60.3,35.8,67.1c-0.8-0.7-1.5-1.5-2.3-2.2c-1.7-1.5-3.4-2.7-5.2-4c-1.9-1.5-4.8,1.5-3.4,3.4   c1.3,1.8,2.5,3.5,4.1,5.1c1.5,1.6,3,3.1,4.7,4.6c0.7,0.6,1.4,0.8,2.1,0.8c0.9,0.3,2,0.1,2.8-1c5.3-6.8,10.5-13.7,15.8-20.5   c2.4,1.9,4.8,3.7,7.2,5.6c1.9,1.5,5.6,0.8,5.4-2.2c-0.7-10.9,0.5-21.7,1-32.6C68,21.8,65.6,20.3,63.6,20.8z"/><path class="st0" d="M73.2,80c17.8-13.4,21.7-39.6,9-57.7c-2.7-3.9-9.2-0.1-6.4,3.7c11,15.1,8.6,36.7-6.6,48.1   c-14.7,11-37.5,10.5-50.5-3.1C6.3,57.9,5.4,36,17.1,22.2c6.3-7.4,15.2-11.3,24.6-13.1c9.9-1.8,16.1,0.7,26.1,3.4   c0.8,0.2,1.3-0.9,0.9-1.6C63,2.1,49.5,0.1,39.7,1.9c-11.5,2-22.2,7.4-29.4,16.7C-2.8,35.5-1.4,60.9,13.4,76.3   C28.8,92.4,55.8,93.1,73.2,80z"/><path class="st0" d="M70.2,16.4c0,2.1,1.7,3.8,3.8,3.8c2.1,0,3.8-1.7,3.8-3.8c0-2.1-1.7-3.8-3.8-3.8C71.9,12.6,70.2,14.3,70.2,16.4   z"/></g></svg>